{"title":"Errors.Of.The.Human.Body.2012.BluRay.1080p.Cinemania.cc.mkv","uid":8893003,"size":5784804171,"categoryP":"video","categoryS":"hd___movies","magnet":"?xt=urn:btih:698fda67e724fb74031393365d129efaef03cfc4&amp;dn=Errors.Of.The.Human.Body.2012.BluRay.1080p.Cinemania.cc.mkv&amp;tr=udp%3A%2F%2Ftracker.openbittorrent.com%3A80&amp;tr=udp%3A%2F%2Fopen.demonii.com%3A1337&amp;tr=udp%3A%2F%2Ftracker.coppersurfer.tk%3A6969&amp;tr=udp%3A%2F%2Fexodus.desync.com%3A6969","seeders":1,"leechers":0,"uploader":"ABSTAIN","files":1,"time":1378632285,"description":"[img]http://cinemania.cc/torrents/images/2300.jpg[/img]\n &lt;a href=&quot;\nhttp://www.imdb.com/title/tt1835955/&quot; rel=&quot;nofollow&quot; target=&quot;_NEW&quot;&gt;\nhttp://www.imdb.com/title/tt1835955/&lt;/a&gt;\n\nGeneral \nErrors.Of.The.Human.Body.2012.BluRay.1080p.Cinemania.cc.mkv \nFormat : Matroska \nFormat version : Version 4 / Version 2 \nFile size : 5.39 GiB \nDuration : 1h 41mn \nOverall bit rate : 7 588 Kbps \nMovie name : CINEMANIA.CC \nEncoded date : UTC 2013-09-07 22:58:52 \nWriting application : mkvmerge v6.3.0 ('You can't stop me!') built on Jun 28 2013 20:09:41 \nWriting library : libebml v1.3.0 + libmatroska v1.4.0 \n\nVideo \nID : 1 \nFormat : AVC \nFormat/Info : Advanced Video Codec \nFormat profile : &lt;a class=&quot;__cf_email__&quot; href=&quot;/cdn-cgi/l/email-protection&quot; data-cfemail=&quot;773f1e101f373b435946&quot;&gt;[email&amp;#160;protected]&lt;/a&gt;&lt;script cf-hash='f9e31' type=&quot;text/javascript&quot;&gt;\n/* &lt;![CDATA[ */!function(){try{var t=&quot;currentScript&quot;in document?document.currentScript:function(){for(var t=document.getElementsByTagName(&quot;script&quot;),e=t.length;e--;)if(t[e].getAttribute(&quot;cf-hash&quot;))return t[e]}();if(t&amp;&amp;t.previousSibling){var e,r,n,i,c=t.previousSibling,a=c.getAttribute(&quot;data-cfemail&quot;);if(a){for(e=&quot;&quot;,r=parseInt(a.substr(0,2),16),n=2;a.length-n;n+=2)i=parseInt(a.substr(n,2),16)^r,e+=String.fromCharCode(i);e=document.createTextNode(e),c.parentNode.replaceChild(e,c)}}}catch(u){}}();/* ]]&gt; */&lt;/script&gt; \nFormat settings, CABAC : Yes \nFormat settings, ReFrames : 4 frames \nCodec ID : V_MPEG4/ISO/AVC \nDuration : 1h 41mn \nBit rate : 5 544 Kbps \nWidth : 1 920 pixels \nHeight : 1 040 pixels \nDisplay aspect ratio : 1.85:1 \nFrame rate mode : Constant \nFrame rate : 24.000 fps \nColor space : YUV \nChroma subsampling : 4:2:0 \nBit depth : 8 bits \nScan type : Progressive \nBits/(Pixel*Frame) : 0.116 \nStream size : 3.94 GiB (73%) \nTitle : CINEMANIA.CC \nWriting library : x264 core 138 r2358 9e941d1 \nEncoding settings : cabac=1 // deblock=1:-1:-1 / analyse=0x3:0x113 / me=umh / subme=7 / psy=1 / psy_rd=1.00:0.15 // me_range=16 / chroma_me=1 / trellis=1 / 8x8dct=1 / cqm=0 / deadzone=21,11 / fast_pskip=0 / chroma_qp_offset=-3 / threads=18 / lookahead_threads=3 / sliced_threads=0 / nr=0 / decimate=1 / interlaced=0 / bluray_compat=0 / constrained_intra=0 / bframes=3 / b_pyramid=2 / b_adapt=1 / b_bias=0 / direct=1 / weightb=1 / open_gop=0 / weightp=2 / keyint=250 / keyint_min=24 / scenecut=40 / intra_refresh=0 / rc_lookahead=40 / rc=crf / mbtree=1 / crf=20.0 / qcomp=0.60 / qpmin=0 / qpmax=69 / qpstep=4 / ip_ratio=1.40 / aq=1:1.00 \nLanguage : German \nDefault : Yes \nForced : No \n\nAudio #1 \nID : 2 \nFormat : AC-3 \nFormat/Info : Audio Coding 3 \nMode extension : CM (complete main) \nFormat settings, Endianness : Big \nCodec ID : A_AC3 \nDuration : 1h 41mn \nBit rate mode : Constant \nBit rate : 384 Kbps \nChannel(s) : 6 channels \nChannel positions : Front: L C R, Side: L R, LFE \nSampling rate : 48.0 KHz \nBit depth : 16 bits \nCompression mode : Lossy \nStream size : 279 MiB (5%) \nTitle : den904 \nLanguage : Russian \nDefault : Yes \nForced : Yes \n\nAudio #2 \nID : 3 \nFormat : DTS \nFormat/Info : Digital Theater Systems \nMode : 16 \nFormat settings, Endianness : Big \nCodec ID : A_DTS \nDuration : 1h 41mn \nBit rate mode : Constant \nBit rate : 1 509 Kbps \nChannel(s) : 6 channels \nChannel positions : Front: L C R, Side: L R, LFE \nSampling rate : 48.0 KHz \nBit depth : 24 bits \nCompression mode : Lossy \nStream size : 1.07 GiB (20%) \nLanguage : English \nDefault : No \nForced : No \n\nMenu \n00:00:00.000 : de:00:00:00.000 \n00:12:05.458 : de:00:12:05.458 \n00:18:46.250 : de:00:18:46.250 \n00:29:29.292 : de:00:29:29.292 \n00:36:40.375 : de:00:36:40.375 \n00:45:40.917 : de:00:45:40.917 \n01:00:01.125 : de:01:00:01.125 \n01:08:02.500 : de:01:08:02.500 \n01:15:40.083 : de:01:15:40.083 \n01:23:02.958 : de:01:23:02.958 \n01:31:49.000 : de:01:31:49.000 \n01:37:30.750 : de:01:37:30.750 ","torrent":{"xt":"urn:btih:698fda67e724fb74031393365d129efaef03cfc4","amp;dn":"Errors.Of.The.Human.Body.2012.BluRay.1080p.Cinemania.cc.mkv","amp;tr":["udp%3A%2F%2Ftracker.openbittorrent.com%3A80","udp%3A%2F%2Fopen.demonii.com%3A1337","udp%3A%2F%2Ftracker.coppersurfer.tk%3A6969","udp%3A%2F%2Fexodus.desync.com%3A6969"],"infoHash":"698fda67e724fb74031393365d129efaef03cfc4","infoHashBuffer":{"type":"Buffer","data":[105,143,218,103,231,36,251,116,3,19,147,54,93,18,158,250,239,3,207,196]},"announce":[],"urlList":[]}}